<svg width="81" height="82" viewBox="0 0 81 82" fill="none" xmlns="http://www.w3.org/2000/svg">
<g opacity="0.21">
<path d="M30.3778 1.42133C30.8721 2.02925 31.1748 2.77322 31.247 3.55713C31.3192 4.34103 31.1576 5.12884 30.7829 5.81877C27.8558 11.2591 26.3271 17.3571 26.3376 23.552C26.3376 44.1605 42.934 60.8482 63.3884 60.8482C66.0566 60.8482 68.6539 60.5663 71.15 60.0282C71.9151 59.8604 72.7121 59.9246 73.4415 60.2126C74.1708 60.5006 74.8002 60.9998 75.251 61.6477C75.7268 62.3214 75.9695 63.1354 75.9411 63.9631C75.9127 64.7908 75.6149 65.5859 75.094 66.2245C71.1231 71.1623 66.1136 75.1409 60.4308 77.87C54.7481 80.5991 48.5353 82.01 42.2455 81.9999C18.9051 81.9999 0 62.9649 0 39.5119C0 21.8607 10.7031 6.72081 25.9427 0.304038C26.7018 -0.0207377 27.5445 -0.0873964 28.3443 0.114075C29.144 0.315546 29.8576 0.774269 30.3778 1.42133Z" fill="white"/>
<path d="M54.6497 16.1307C54.7223 15.9087 54.8622 15.7156 55.0494 15.5787C55.2367 15.4418 55.4618 15.3681 55.6927 15.3681C55.9237 15.3681 56.1488 15.4418 56.336 15.5787C56.5232 15.7156 56.6631 15.9087 56.7357 16.1307L58.6951 22.0862C59.571 24.7411 61.6265 26.8219 64.2491 27.7086L70.1323 29.692C70.3516 29.7655 70.5424 29.9071 70.6776 30.0966C70.8128 30.2861 70.8856 30.514 70.8856 30.7478C70.8856 30.9816 70.8128 31.2095 70.6776 31.399C70.5424 31.5885 70.3516 31.7301 70.1323 31.8036L64.2491 33.7871C62.9557 34.2233 61.7804 34.9585 60.8163 35.9344C59.8523 36.9103 59.126 38.1001 58.6951 39.4094L56.7357 45.3649C56.6631 45.5869 56.5232 45.78 56.336 45.9169C56.1488 46.0538 55.9237 46.1275 55.6927 46.1275C55.4618 46.1275 55.2367 46.0538 55.0494 45.9169C54.8622 45.78 54.7223 45.5869 54.6497 45.3649L52.6904 39.4094C52.2594 38.1001 51.5332 36.9103 50.5691 35.9344C49.6051 34.9585 48.4298 34.2233 47.1363 33.7871L41.2531 31.8036C41.0339 31.7301 40.8431 31.5885 40.7078 31.399C40.5726 31.2095 40.4998 30.9816 40.4998 30.7478C40.4998 30.514 40.5726 30.2861 40.7078 30.0966C40.8431 29.9071 41.0339 29.7655 41.2531 29.692L47.1363 27.7086C48.4298 27.2723 49.6051 26.5371 50.5691 25.5612C51.5332 24.5853 52.2594 23.3956 52.6904 22.0862L54.6497 16.1307ZM70.188 0.503921C70.238 0.357987 70.3316 0.231444 70.456 0.141884C70.5803 0.0523244 70.7291 0.00419913 70.8816 0.00419913C71.0342 0.00419913 71.183 0.0523244 71.3073 0.141884C71.4316 0.231444 71.5253 0.357987 71.5753 0.503921L72.8815 4.47084C73.4638 6.24416 74.8358 7.63309 76.5876 8.22249L80.5063 9.5448C80.6505 9.59539 80.7755 9.6902 80.864 9.81604C80.9525 9.94188 81 10.0925 81 10.247C81 10.4014 80.9525 10.552 80.864 10.6779C80.7755 10.8037 80.6505 10.8985 80.5063 10.9491L76.5876 12.2714C75.7243 12.5621 74.9399 13.0526 74.2965 13.7038C73.6532 14.3551 73.1687 15.1492 72.8815 16.0231L71.5753 19.99C71.5253 20.1359 71.4316 20.2625 71.3073 20.352C71.183 20.4416 71.0342 20.4897 70.8816 20.4897C70.7291 20.4897 70.5803 20.4416 70.456 20.352C70.3316 20.2625 70.238 20.1359 70.188 19.99L68.8818 16.0231C68.5946 15.1492 68.1101 14.3551 67.4668 13.7038C66.8234 13.0526 66.039 12.5621 65.1757 12.2714L61.2569 10.9491C61.1128 10.8985 60.9878 10.8037 60.8993 10.6779C60.8108 10.552 60.7633 10.4014 60.7633 10.247C60.7633 10.0925 60.8108 9.94188 60.8993 9.81604C60.9878 9.6902 61.1128 9.59539 61.2569 9.5448L65.1757 8.22249C66.9275 7.63309 68.2995 6.24416 68.8818 4.47084L70.188 0.509046V0.503921Z" fill="white"/>
</g>
</svg>
