<svg width="35" height="21" viewBox="0 0 35 21" fill="none" xmlns="http://www.w3.org/2000/svg">
<path d="M34.2536 17.9668C34.1607 17.8164 33.5861 16.609 30.8209 14.1274C27.9262 11.5289 28.315 11.9508 31.8017 7.45763C33.9252 4.72119 34.7742 3.05008 34.5085 2.33568C34.2557 1.6547 32.6939 1.83434 32.6939 1.83434L27.5006 1.86359C27.5006 1.86359 27.1161 1.81346 26.8288 1.97848C26.5501 2.14141 26.3708 2.51741 26.3708 2.51741C26.3708 2.51741 25.5477 4.63554 24.4503 6.43616C22.1367 10.2358 21.2099 10.4364 20.8319 10.2003C19.9527 9.65096 20.173 7.99029 20.173 6.81216C20.173 3.12945 20.7498 1.59412 19.0475 1.19723C18.4815 1.06563 18.0667 0.9779 16.6215 0.963278C14.768 0.944478 13.1975 0.969545 12.3097 1.38941C11.7177 1.66932 11.2619 2.2939 11.5406 2.32941C11.8841 2.37328 12.6618 2.53203 13.0744 3.07514C13.608 3.77492 13.5885 5.34994 13.5885 5.34994C13.5885 5.34994 13.8953 9.68438 12.8735 10.2233C12.1714 10.593 11.2101 9.83896 9.14703 6.39021C8.09066 4.6251 7.29136 2.67199 7.29136 2.67199C7.29136 2.67199 7.13799 2.30852 6.86363 2.11426C6.53095 1.87821 6.06434 1.80301 6.06434 1.80301L1.12598 1.83226C1.12598 1.83226 0.385009 1.85314 0.112816 2.16439C-0.129133 2.44221 0.0933735 3.01456 0.0933735 3.01456C0.0933735 3.01456 3.96024 11.7607 8.33693 16.1704C12.3529 20.2124 16.911 19.9471 16.911 19.9471H18.9762C18.9762 19.9471 19.6005 19.8802 19.9181 19.5481C20.2119 19.2431 20.2011 18.6708 20.2011 18.6708C20.2011 18.6708 20.16 15.9907 21.4476 15.5959C22.7156 15.2074 24.3445 18.1861 26.0705 19.3329C27.3753 20.1998 28.3669 20.0098 28.3669 20.0098L32.9834 19.9471C32.9834 19.9471 35.3985 19.8029 34.2536 17.9668Z" fill="#2A2976"/>
</svg>
