<svg width="29" height="29" viewBox="0 0 29 29" fill="none" xmlns="http://www.w3.org/2000/svg">
<path d="M20.0618 0H9.33582C4.40006 0 0.397461 4.0026 0.397461 8.93836V19.6644C0.397461 24.6001 4.40006 28.6027 9.33582 28.6027H20.0618C24.9976 28.6027 29.0002 24.6001 29.0002 19.6644V8.93836C29.0002 4.0026 24.9976 0 20.0618 0ZM26.3187 19.6644C26.3187 23.1146 23.5121 25.9212 20.0618 25.9212H9.33582C5.88561 25.9212 3.07897 23.1146 3.07897 19.6644V8.93836C3.07897 5.48815 5.88561 2.68151 9.33582 2.68151H20.0618C23.5121 2.68151 26.3187 5.48815 26.3187 8.93836V19.6644Z" fill="#2A2976"/>
<path d="M14.6988 7.15068C10.7499 7.15068 7.54815 10.3524 7.54815 14.3014C7.54815 18.2503 10.7499 21.4521 14.6988 21.4521C18.6478 21.4521 21.8495 18.2503 21.8495 14.3014C21.8495 10.3524 18.6478 7.15068 14.6988 7.15068ZM14.6988 18.7705C12.2354 18.7705 10.2297 16.7648 10.2297 14.3014C10.2297 11.8362 12.2354 9.83219 14.6988 9.83219C17.1622 9.83219 19.168 11.8362 19.168 14.3014C19.168 16.7648 17.1622 18.7705 14.6988 18.7705Z" fill="#2A2976"/>
<path d="M22.3859 7.5672C22.9121 7.5672 23.3387 7.14061 23.3387 6.61438C23.3387 6.08814 22.9121 5.66155 22.3859 5.66155C21.8596 5.66155 21.433 6.08814 21.433 6.61438C21.433 7.14061 21.8596 7.5672 22.3859 7.5672Z" fill="#2A2976"/>
</svg>
