<svg width="186" height="31" viewBox="0 0 186 31" fill="none" xmlns="http://www.w3.org/2000/svg">
<path fill-rule="evenodd" clip-rule="evenodd" d="M164.549 0V11.5811H167.024L175.039 0H185.057L174.096 15.0555L186 30.69H175.746L167.024 18.6456H164.549V30.69H156.18V0H164.549ZM100.901 0V11.5811H103.376L111.391 0H121.41L110.448 15.0555L122.353 30.69H112.098L103.376 18.6456H100.901V30.69H92.5327V0H100.901Z" fill="white"/>
<path d="M143.288 11.0982H151.656V9.85251C151.656 6.11535 150.596 3.51066 148.356 2.03845C146.47 0.679483 143.288 0 138.927 0C133.859 0 130.323 0.679483 128.201 2.03845C125.608 3.73716 124.312 6.79483 124.312 11.438V19.1388C124.312 22.5362 124.901 25.1409 126.197 26.9528C127.376 28.5383 129.026 29.5575 131.384 30.1238C132.916 30.4635 135.391 30.69 138.927 30.69C143.877 30.69 147.295 29.8973 149.063 28.4251C150.831 26.9528 151.774 24.1217 151.774 19.9315V19.0255H143.17V19.9315C143.17 21.517 142.699 22.6495 141.874 23.1024C141.284 23.4422 139.988 23.6687 138.102 23.6687C135.745 23.6687 134.33 23.2157 133.623 22.1965C133.152 21.4037 132.916 19.8183 132.916 17.3268V12.6837C132.916 10.4187 133.152 8.94653 133.741 8.26705C134.448 7.47432 135.862 7.02133 138.102 7.02133C139.752 7.02133 140.931 7.24783 141.756 7.58757C142.816 8.04056 143.288 8.83328 143.288 9.96576V11.0982Z" fill="white"/>
<path d="M54.8826 11.9029L54.9528 11.8336L74.0745 30.69H85.9053L85.99 30.6066L54.9528 0L54.8826 0.0692374V11.9029Z" fill="white"/>
<path d="M42.5296 11.333L31.0372 0L0 30.6066L0.0846092 30.69H11.9155L31.0372 11.8336L50.1589 30.69H61.9897L62.0743 30.6066L46.0832 14.8373V7.49498H42.5296V11.333Z" fill="white"/>
</svg>
