<svg width="94" height="31" viewBox="0 0 94 31" fill="none" xmlns="http://www.w3.org/2000/svg">
<path fill-rule="evenodd" clip-rule="evenodd" d="M72.5485 0V11.5811H75.0237L83.0386 0H93.0571L82.0956 15.0555L94.0001 30.69H83.7457L75.0237 18.6456H72.5485V30.69H64.1801V0H72.5485ZM8.90116 0V11.5811H11.3763L19.3912 0H29.4098L18.4483 15.0555L30.3527 30.69H20.0984L11.3763 18.6456H8.90116V30.69H0.532715V0H8.90116Z" fill="#2A2976"/>
<path d="M51.288 11.0982H59.6564V9.85251C59.6564 6.11535 58.5956 3.51066 56.3562 2.03845C54.4703 0.679483 51.288 0 46.9269 0C41.8587 0 38.3227 0.679483 36.2012 2.03845C33.6081 3.73716 32.3116 6.79483 32.3116 11.438V19.1388C32.3116 22.5362 32.9009 25.1409 34.1975 26.9528C35.3761 28.5383 37.0262 29.5575 39.3835 30.1238C40.9158 30.4635 43.391 30.69 46.9269 30.69C51.8773 30.69 55.2954 29.8973 57.0634 28.4251C58.8313 26.9528 59.7743 24.1217 59.7743 19.9315V19.0255H51.1701V19.9315C51.1701 21.517 50.6986 22.6495 49.8736 23.1024C49.2842 23.4422 47.9877 23.6687 46.1019 23.6687C43.7446 23.6687 42.3302 23.2157 41.623 22.1965C41.1515 21.4037 40.9158 19.8183 40.9158 17.3268V12.6837C40.9158 10.4187 41.1515 8.94653 41.7408 8.26705C42.448 7.47432 43.8624 7.02133 46.1019 7.02133C47.752 7.02133 48.9306 7.24783 49.7557 7.58757C50.8165 8.04056 51.288 8.83328 51.288 9.96576V11.0982Z" fill="#2A2976"/>
</svg>
