<svg width="55" height="83" viewBox="0 0 55 83" fill="none" xmlns="http://www.w3.org/2000/svg">
<path d="M53.9852 20.2953L28.9819 4.01156V1.62109C28.9819 0.725764 28.2561 0 27.3608 0C26.4655 0 25.7397 0.725764 25.7397 1.62109V4.01156L0.736463 20.2953C0.277045 20.5945 0 21.1055 0 21.6538V81.3789C0 82.2742 0.725764 83 1.62109 83H53.1005C53.9959 83 54.7216 82.2742 54.7216 81.3789V21.6538C54.7216 21.1055 54.4446 20.5944 53.9852 20.2953ZM27.3608 21.3475C28.2561 21.3475 28.9819 20.6218 28.9819 19.7264V18.6484C29.9564 19.2087 30.6135 20.2577 30.6135 21.4566C30.6135 23.2432 29.1544 24.6967 27.3608 24.6967C25.5672 24.6967 24.1081 23.2432 24.1081 21.4566C24.1081 20.2577 24.7653 19.2087 25.7397 18.6484V19.7264C25.7397 20.6218 26.4655 21.3475 27.3608 21.3475ZM51.4795 79.7578H3.24219V22.5326L25.7397 7.88078V15.1789C22.9401 15.8994 20.8659 18.4409 20.8659 21.4568C20.8659 25.0311 23.7795 27.9391 27.3608 27.9391C30.9421 27.9391 33.8557 25.0311 33.8557 21.4568C33.8557 18.4409 31.7814 15.8994 28.9819 15.1789V7.88078L51.4795 22.5326V79.7578Z" fill="#2A2976"/>
<path d="M9.41455 37.5941H45.3069V73.6056H9.41455V37.5941Z" fill="#EE2C2C"/>
<path d="M22.9842 67.0671C22.7751 67.0671 22.5626 67.0264 22.3577 66.9403C21.5321 66.5939 21.1438 65.6437 21.4902 64.8183L30.1094 44.2807C30.4559 43.455 31.406 43.0668 32.2314 43.4132C33.0571 43.7596 33.4453 44.7098 33.0989 45.5352L24.4797 66.0727C24.2194 66.6936 23.6176 67.0671 22.9842 67.0671Z" fill="white"/>
<path d="M20.5245 54.4229C17.5307 54.4229 15.095 51.7105 15.095 48.3763C15.095 45.042 17.5307 42.3296 20.5245 42.3296C23.5183 42.3296 25.954 45.042 25.954 48.3763C25.954 51.7105 23.5183 54.4229 20.5245 54.4229ZM20.5245 45.5718C19.3388 45.5718 18.3372 46.856 18.3372 48.3763C18.3372 49.8964 19.3388 51.1808 20.5245 51.1808C21.7102 51.1808 22.7118 49.8965 22.7118 48.3763C22.7118 46.856 21.7102 45.5718 20.5245 45.5718Z" fill="white"/>
<path d="M33.7862 68.4648C30.7924 68.4648 28.3567 65.7524 28.3567 62.4181C28.3567 59.084 30.7924 56.3715 33.7862 56.3715C36.7801 56.3715 39.2157 59.0839 39.2157 62.4181C39.2156 65.7524 36.7799 68.4648 33.7862 68.4648ZM33.7862 59.6138C32.6005 59.6138 31.5989 60.898 31.5989 62.4183C31.5989 63.9386 32.6005 65.2228 33.7862 65.2228C34.9719 65.2228 35.9736 63.9386 35.9736 62.4183C35.9736 60.898 34.9719 59.6138 33.7862 59.6138Z" fill="white"/>
</svg>
