<svg width="83" height="83" viewBox="0 0 83 83" fill="none" xmlns="http://www.w3.org/2000/svg">
<path d="M41.0664 63.4821H55.4431C57.1781 63.4821 58.7809 62.554 59.6448 61.049L67.2887 47.7226C68.146 46.2285 68.1445 44.3923 67.2865 42.8987L63.0951 35.6085L64.7965 34.6312C65.4334 34.264 65.653 33.4502 65.2865 32.8126C65.1105 32.5075 64.8206 32.284 64.4802 32.1919L53.5 29.2264C52.7903 29.0347 52.059 29.455 51.8681 30.1649L48.9263 41.0603C48.8348 41.4009 48.8822 41.765 49.0574 42.0709L49.0884 42.1247C49.4549 42.7616 50.2685 42.9814 50.9055 42.6149L52.6053 41.6382L56.8653 51.3823H41.1283" fill="#EE2C2C"/>
<path d="M22.8844 30.4933L15.7137 42.9668C14.8521 44.4655 14.8548 46.3097 15.7203 47.8061L23.7785 61.731C24.4058 62.8153 25.563 63.483 26.8162 63.483H35.8918V65.4431C35.8918 66.1779 36.4874 66.7742 37.2224 66.7742H37.2237C37.5767 66.7742 37.9151 66.6335 38.165 66.3843L46.2063 58.343C46.726 57.8233 46.726 56.98 46.2063 56.4603L41.1268 51.3824L38.2261 48.4803C37.9763 48.2305 37.638 48.0904 37.2849 48.0904H37.2222C36.4872 48.0904 35.891 48.686 35.891 49.4215V51.3824H26.1756L33.3449 36.5758" fill="#EE2C2C"/>
<path d="M60.5183 31.1218L53.3527 18.6556C52.4881 17.1529 50.8871 16.2261 49.1533 16.2261H33.8197C32.0743 16.2261 30.4636 17.1653 29.604 18.6853L25.4638 26.0056L23.7632 25.0289C23.1263 24.6624 22.3127 24.8821 21.9462 25.519L21.9455 25.5205C21.7699 25.8264 21.7221 26.1898 21.8142 26.5312L22.8846 30.4932L24.7782 37.5091C24.97 38.2188 25.7005 38.639 26.4103 38.4474L37.3072 35.5062C37.6484 35.4141 37.9387 35.1908 38.1143 34.8841L38.1453 34.831C38.5118 34.1935 38.2918 33.3797 37.6544 33.014L35.9539 32.0366L41.6198 24.5121C45.1779 29.1209 49.9953 37.0991 49.9953 37.0991" fill="#EE2C2C"/>
<path d="M41.5 83C30.415 83 19.9934 78.6834 12.1551 70.8449C4.31665 63.0066 0 52.585 0 41.5C0 30.415 4.31665 19.9934 12.1551 12.1551C19.9934 4.31665 30.415 0 41.5 0C52.585 0 63.0066 4.31665 70.845 12.1551C78.6832 19.9934 83 30.415 83 41.5C83 52.585 78.6832 63.0066 70.845 70.8449C63.0066 78.6834 52.585 83 41.5 83ZM41.5 3.24219C20.4045 3.24219 3.24219 20.4045 3.24219 41.5C3.24219 62.5955 20.4045 79.7578 41.5 79.7578C62.5955 79.7578 79.7578 62.5955 79.7578 41.5C79.7578 20.4045 62.5955 3.24219 41.5 3.24219Z" fill="#2A2976"/>
</svg>
