<svg width="83" height="59" viewBox="0 0 83 59" fill="none" xmlns="http://www.w3.org/2000/svg">
<path d="M42.583 0.951782H34.1499C33.2546 0.951782 32.5288 1.67771 32.5288 2.57287V56.2749C32.5288 57.1701 33.2546 57.896 34.1499 57.896H42.583C43.4781 57.896 44.2041 57.1701 44.2041 56.2749V2.57287C44.2041 1.67771 43.4781 0.951782 42.583 0.951782ZM40.9619 54.6537H35.771V4.19397H40.9619V54.6537Z" fill="#2A2976"/>
<path d="M27.7776 0.951782H20.9656C20.0702 0.951782 19.3445 1.67771 19.3445 2.57287V56.2749C19.3445 57.1701 20.0702 57.896 20.9656 57.896H27.7776C28.6729 57.896 29.3987 57.1701 29.3987 56.2749V2.57287C29.3987 1.67771 28.6729 0.951782 27.7776 0.951782ZM26.1565 54.6537H22.5867V4.19397H26.1565V54.6537Z" fill="#2A2976"/>
<path d="M8.43308 0.951782H1.62109C0.725763 0.951782 0 1.67771 0 2.57287V56.2749C0 57.1701 0.725763 57.896 1.62109 57.896H8.43308C9.32841 57.896 10.0542 57.1701 10.0542 56.2749V2.57287C10.0542 1.67771 9.32841 0.951782 8.43308 0.951782ZM6.81199 54.6537H3.24218V4.19397H6.81199V54.6537Z" fill="#2A2976"/>
<path d="M14.5933 0.951782C13.6979 0.951782 12.9722 1.67771 12.9722 2.57287V56.2749C12.9722 57.1701 13.6979 57.896 14.5933 57.896C15.4886 57.896 16.2144 57.1701 16.2144 56.2749V2.57287C16.2144 1.67771 15.4886 0.951782 14.5933 0.951782Z" fill="#2A2976"/>
<path d="M62.1396 50.8875V56.2747C62.1396 57.1699 62.8656 57.8958 63.7607 57.8958C64.6559 57.8958 65.3818 57.1699 65.3818 56.2747V50.3373C64.3203 50.6369 63.2329 50.8202 62.1396 50.8875Z" fill="#2A2976"/>
<path d="M65.3818 23.9541V2.57287C65.3818 1.67771 64.6559 0.951782 63.7607 0.951782C62.8656 0.951782 62.1396 1.67771 62.1396 2.57287V23.4039C63.2329 23.4712 64.3203 23.6545 65.3818 23.9541Z" fill="#2A2976"/>
<path d="M55.7673 49.9347V54.6538H50.5764V46.674C50.485 46.5868 50.3944 46.4984 50.3046 46.4086C49.0545 45.1586 48.0644 43.747 47.3342 42.241V56.2748C47.3342 57.1699 48.0602 57.8959 48.9553 57.8959H57.3884C58.2836 57.8959 59.0095 57.1699 59.0095 56.2748V50.7627C57.908 50.6061 56.8204 50.3301 55.7673 49.9347Z" fill="#2A2976"/>
<path d="M50.3043 27.883C50.3941 27.7932 50.4847 27.7047 50.5762 27.6176V4.19396H55.7671V24.3569C56.8201 23.9615 57.9079 23.6855 59.0092 23.5289V2.57287C59.0092 1.67771 58.2833 0.951782 57.3882 0.951782H48.9551C48.0599 0.951782 47.334 1.67771 47.334 2.57287V32.0506C48.0641 30.5446 49.0543 29.133 50.3043 27.883Z" fill="#2A2976"/>
<path d="M81.3789 58.9572C80.9639 58.9572 80.5492 58.7988 80.2326 58.4824L68.5068 46.7564C67.8737 46.1233 67.8737 45.0969 68.5068 44.4637C69.1403 43.8308 70.1664 43.8311 70.7995 44.4637L82.5253 56.1897C83.1583 56.8227 83.1583 57.8492 82.5253 58.4824C82.2085 58.799 81.7937 58.9572 81.3789 58.9572Z" fill="#2A2976"/>
<path d="M61.1884 52.5379C69.6893 52.5379 76.5807 45.6466 76.5807 37.1457C76.5807 28.6448 69.6893 21.7534 61.1884 21.7534C52.6875 21.7534 45.7961 28.6448 45.7961 37.1457C45.7961 45.6466 52.6875 52.5379 61.1884 52.5379Z" fill="#EE2C2C"/>
<path d="M60.4833 41.8661C60.0561 41.8661 59.6452 41.6974 59.3407 41.3951L56.7241 38.7956C56.089 38.1647 56.0857 37.1382 56.7167 36.5031C57.3476 35.8676 58.3742 35.8645 59.0092 36.4956L60.3785 37.856L64.4776 33.0009C65.0551 32.3166 66.078 32.2302 66.7621 32.8081C67.4462 33.3857 67.5326 34.4083 66.9548 35.0926L61.7218 41.291C61.4298 41.6369 61.0064 41.8449 60.5541 41.8647C60.5304 41.8657 60.5068 41.8661 60.4833 41.8661Z" fill="white"/>
</svg>
