<svg width="59" height="83" viewBox="0 0 59 83" fill="none" xmlns="http://www.w3.org/2000/svg">
<path d="M29.4997 57.2428C23.2595 57.2428 17.4983 55.1975 12.8525 51.7423V83.0001L29.4997 76.2382L46.1469 83.0001V51.7425C41.5012 55.1977 35.7399 57.2428 29.4997 57.2428Z" fill="#EE2C2C"/>
<path d="M29.4997 0C13.2335 0 0 13.2032 0 29.4319C0 45.6609 13.2335 58.864 29.4997 58.864C45.7659 58.864 58.9994 45.6609 58.9994 29.4319C58.9994 13.2032 45.7659 0 29.4997 0ZM29.4997 55.6218C15.0212 55.6218 3.24219 43.8731 3.24219 29.4319C3.24219 14.9909 15.0214 3.24219 29.4997 3.24219C43.978 3.24219 55.7572 14.9909 55.7572 29.4319C55.7572 43.8731 43.9782 55.6218 29.4997 55.6218Z" fill="#2A2976"/>
<path d="M29.4997 7.43066C17.3408 7.43066 7.44873 17.3004 7.44873 29.432C7.44873 41.5636 17.3408 51.4335 29.4997 51.4335C41.6585 51.4335 51.5506 41.5636 51.5506 29.432C51.5506 17.3004 41.6585 7.43066 29.4997 7.43066ZM29.4997 48.1913C19.1284 48.1913 10.6909 39.7759 10.6909 29.432C10.6909 19.0881 19.1284 10.6729 29.4997 10.6729C39.8709 10.6729 48.3084 19.0883 48.3084 29.432C48.3084 39.7759 39.8709 48.1913 29.4997 48.1913Z" fill="#2A2976"/>
<path d="M38.1718 25.0944L33.926 24.4141L31.9633 20.5925C31.4869 19.6646 30.5429 19.0881 29.4999 19.0881C28.4569 19.0881 27.513 19.6646 27.0365 20.5923L25.0739 24.4141L20.8281 25.0944C19.7961 25.2598 18.9546 25.9802 18.6321 26.9743C18.3097 27.9683 18.5679 29.0454 19.3062 29.7851L22.3362 32.8211L21.6733 37.0563C21.5118 38.0877 21.9359 39.1098 22.78 39.724C23.2644 40.0764 23.8339 40.2559 24.4076 40.2559C24.8336 40.2559 25.2617 40.1568 25.6588 39.9562L29.4998 38.0142L33.341 39.9562C34.2726 40.4271 35.3754 40.3381 36.2197 39.724C37.0638 39.1098 37.4879 38.0877 37.3264 37.0563L36.6636 32.8211L39.6934 29.7851C40.4318 29.0454 40.69 27.9683 40.3676 26.9741C40.0452 25.9802 39.2038 25.2598 38.1718 25.0944ZM33.7874 31.1134C33.422 31.4795 33.2533 31.9982 33.3332 32.5092L33.9808 36.6464L30.2312 34.7508C30.0013 34.6346 29.7506 34.5764 29.4998 34.5764C29.2492 34.5764 28.9984 34.6344 28.7683 34.7508L25.0187 36.6464L25.6664 32.5092C25.7463 31.998 25.5775 31.4795 25.2121 31.1134L22.254 28.1494L26.3973 27.4854C26.9068 27.4037 27.3471 27.0843 27.5828 26.6252L29.4998 22.8925L31.4167 26.6252C31.6524 27.0842 32.0927 27.4037 32.6022 27.4854L36.7456 28.1494L33.7874 31.1134Z" fill="#2A2976"/>
</svg>
